HIERARCHY
ROOT Hips
{
 OFFSET 0.000000 0.000000 0.000000
 CHANNELS 6 Xposition Yposition Zposition Yrotation Xrotation Zrotation
 JOINT Chest
 {
  OFFSET 0.000000 9.588913 -0.003946
  CHANNELS 3 Yrotation Xrotation Zrotation
  JOINT Chest2
  {
   OFFSET 0.000000 9.541882 0.008053
   CHANNELS 3 Yrotation Xrotation Zrotation
   JOINT Chest3
   {
    OFFSET 0.000000 9.501360 0.000000
    CHANNELS 3 Yrotation Xrotation Zrotation
    JOINT Chest4
    {
     OFFSET 0.000000 9.491660 0.000000
     CHANNELS 3 Yrotation Xrotation Zrotation
     JOINT Neck
     {
      OFFSET 0.000000 14.331917 0.000000
      CHANNELS 3 Yrotation Xrotation Zrotation
      JOINT Head
      {
       OFFSET 0.000000 8.884799 0.017034
       CHANNELS 3 Yrotation Xrotation Zrotation
       End Site
       {
        OFFSET 0.000000 16.896195 0.008993
       }
      }
     }
     JOINT RightCollar
     {
      OFFSET -2.923010 9.499495 0.000000
      CHANNELS 3 Yrotation Xrotation Zrotation
      JOINT RightShoulder
      {
       OFFSET -13.795216 0.000000 0.000000
       CHANNELS 3 Yrotation Xrotation Zrotation
       JOINT RightElbow
       {
        OFFSET -30.272209 0.000000 0.000000
        CHANNELS 3 Yrotation Xrotation Zrotation
        JOINT RightWrist
        {
         OFFSET -24.478199 0.000000 0.000000
         CHANNELS 3 Yrotation Xrotation Zrotation
         End Site
         {
          OFFSET -18.090752 0.000000 0.000000
         }
        }
       }
      }
     }
     JOINT LeftCollar
     {
      OFFSET 2.923010 9.499495 0.000000
      CHANNELS 3 Yrotation Xrotation Zrotation
      JOINT LeftShoulder
      {
       OFFSET 13.795216 0.000000 0.000000
       CHANNELS 3 Yrotation Xrotation Zrotation
       JOINT LeftElbow
       {
        OFFSET 30.272209 0.000000 0.000000
        CHANNELS 3 Yrotation Xrotation Zrotation
        JOINT LeftWrist
        {
         OFFSET 24.478199 0.000000 0.000000
         CHANNELS 3 Yrotation Xrotation Zrotation
         End Site
         {
          OFFSET 18.090752 0.000000 0.000000
         }
        }
       }
      }
     }
    }
   }
  }
 }
 JOINT RightHip
 {
  OFFSET -7.826875 0.019532 0.001973
  CHANNELS 3 Yrotation Xrotation Zrotation
  JOINT RightKnee
  {
   OFFSET 0.000000 -40.546152 -0.001885
   CHANNELS 3 Yrotation Xrotation Zrotation
   JOINT RightAnkle
   {
    OFFSET 0.000000 -39.417092 -0.003189
    CHANNELS 3 Yrotation Xrotation Zrotation
    JOINT RightToe
    {
     OFFSET 0.000000 -7.579396 17.243563
     CHANNELS 3 Yrotation Xrotation Zrotation
     End Site
     {
      OFFSET 0.000000 -1.500329 6.694466
     }
    }
   }
  }
 }
 JOINT LeftHip
 {
  OFFSET 7.826875 0.019532 0.001973
  CHANNELS 3 Yrotation Xrotation Zrotation
  JOINT LeftKnee
  {
   OFFSET 0.000000 -40.546152 -0.001885
   CHANNELS 3 Yrotation Xrotation Zrotation
   JOINT LeftAnkle
   {
    OFFSET 0.000000 -39.417092 -0.003189
    CHANNELS 3 Yrotation Xrotation Zrotation
    JOINT LeftToe
    {
     OFFSET 0.000000 -7.579396 17.243563
     CHANNELS 3 Yrotation Xrotation Zrotation
     End Site
     {
      OFFSET 0.000000 -1.500329 6.694466
     }
    }
   }
  }
 }
}
MOTION
Frames: 14
Frame Time: 0.008333
0.000000 87.345680 0.000000 0.000000 -5.767889 0.000000 0.000000 11.653876 0.000000 0.000000 -5.885988 0.000000 0.000000 -0.000000 0.000000 0.000000 -0.000000 0.000000 0.000000 12.528808 0.000000 0.000000 0.711711 0.000000 0.000000 -0.000000 0.000000 0.000000 -0.000000 0.000000 2.309063 -0.000000 0.000000 -2.309063 -0.000000 -0.000000 0.000000 -0.000000 0.000000 0.000000 0.000000 0.000000 -2.309063 0.000000 0.000000 2.309063 -0.000000 0.000000 0.000000 8.520374 0.000000 0.000000 1.905768 0.000000 -0.000000 -4.658254 0.000000 0.000000 -0.000000 0.000000 0.000000 8.520374 0.000000 0.000000 1.905768 0.000000 -0.000000 -4.658254 0.000000 0.000000 -0.000000 0.000000
-12.148780 88.782149 38.895194 -30.409035 -9.979124 4.279342 -0.936316 5.541464 1.403733 -0.418544 3.316467 0.800201 -0.516141 4.146466 0.996875 -0.418544 3.316468 0.800201 12.572140 23.152676 -2.846985 14.961308 0.306057 -6.151225 1.063087 0.246402 -3.763493 -0.809092 -6.996134 82.530331 4.317844 -2.899703 1.091917 2.283386 -3.405082 -0.996076 -1.925404 0.179562 -3.153501 -6.378810 -9.518390 -94.682494 -3.379596 22.721564 -5.660611 -2.758206 0.843597 2.106242 -5.349698 -2.710871 -8.653999 0.974161 8.785455 0.486426 6.983745 0.613626 2.963225 -0.020494 0.326000 -0.079327 8.021577 13.250833 3.662047 13.784244 11.855285 4.925322 11.409535 -9.555655 -9.649527 -0.275756 0.046906 -1.821936
-12.170772 88.801959 38.919154 -30.565456 -10.047102 4.280841 -0.865609 5.662626 1.431150 -0.434449 3.316031 0.801482 -0.536019 4.145957 0.998333 -0.434448 3.316032 0.801483 12.534028 23.166715 -2.858671 14.917952 0.318420 -6.154806 1.100617 0.191158 -3.777882 -0.814909 -7.158400 82.450425 4.343407 -2.884293 1.031830 2.284985 -3.420555 -1.033863 -1.962006 0.127661 -3.203994 -6.518007 -9.545632 -94.721014 -3.482715 22.793341 -5.809762 -2.734181 0.877482 2.054706 -5.197126 -2.655571 -8.626822 0.962090 8.839577 0.477554 6.986437 0.687400 2.977426 -0.013334 0.232195 -0.079990 7.956007 13.354608 3.701157 13.657125 12.187389 4.966384 11.427357 -9.615414 -9.454551 -0.145148 -0.189003 -1.752885
-12.182193 88.821585 38.943314 -30.679323 -10.068619 4.306315 -0.840323 5.728595 1.423006 -0.448643 3.316739 0.802192 -0.553762 4.146873 0.999092 -0.448643 3.316740 0.802193 12.498914 23.168331 -2.874684 14.879322 0.316365 -6.164238 1.137090 0.138084 -3.797513 -0.834413 -7.308700 82.396929 4.377516 -2.902001 0.966095 2.288171 -3.441341 -1.071459 -1.987549 0.068947 -3.246222 -6.651796 -9.561033 -94.764353 -3.582041 22.849826 -5.957080 -2.707930 0.907040 2.000981 -5.081080 -2.661402 -8.629801 0.957505 8.912629 0.462726 6.985790 0.746409 2.995025 -0.006749 0.144036 -0.075122 7.752207 13.425614 3.676218 13.471586 12.530146 4.992938 11.472201 -9.634461 -9.235113 -0.082832 -0.432757 -1.707179
-12.185038 88.839341 38.967477 -30.754471 -10.050807 4.334069 -0.852251 5.747814 1.401406 -0.461210 3.318411 0.802403 -0.569471 4.148990 0.999239 -0.461209 3.318412 0.802403 12.464771 23.158191 -2.893756 14.842581 0.300283 -6.177536 1.169577 0.087129 -3.820308 -0.869180 -7.444304 82.367818 4.424249 -2.951902 0.899553 2.293740 -3.464576 -1.110759 -2.005139 0.006960 -3.279752 -6.775886 -9.568399 -94.812190 -3.675765 22.896206 -6.103663 -2.679198 0.933215 1.948255 -5.012778 -2.717366 -8.642429 0.962586 9.004147 0.444754 6.993488 0.759012 3.014995 -0.004673 0.090568 -0.068217 7.447562 13.468471 3.624937 13.252868 12.873467 4.998441 11.494775 -9.615984 -9.011025 -0.067318 -0.675571 -1.660192
-12.182426 88.854646 38.996056 -30.819029 -10.025741 4.357690 -0.871300 5.755168 1.377815 -0.472280 3.319970 0.802230 -0.583314 4.150963 0.998920 -0.472280 3.319971 0.802230 12.429833 23.138634 -2.913794 14.805013 0.272595 -6.191818 1.193859 0.037798 -3.844292 -0.919397 -7.562284 82.360173 4.483519 -3.031407 0.834891 2.304602 -3.491109 -1.152948 -2.019927 -0.051174 -3.305659 -6.884702 -9.573648 -94.863702 -3.761975 22.937274 -6.249101 -2.650499 0.955870 1.898127 -4.970764 -2.783610 -8.654904 0.976335 9.098665 0.422516 7.009794 0.765629 3.037477 -0.004747 0.041711 -0.059811 7.101674 13.513657 3.574515 13.021761 13.208544 4.982526 11.462669 -9.557515 -8.821360 -0.058666 -0.912351 -1.577566
-12.176965 88.866950 39.031563 -30.890505 -10.013505 4.369298 -0.876996 5.772173 1.364867 -0.482020 3.319937 0.801401 -0.595501 4.150941 0.997795 -0.482021 3.319938 0.801401 12.393651 23.113501 -2.932910 14.765600 0.237797 -6.204764 1.204990 -0.007313 -3.867299 -0.983259 -7.662120 82.368284 4.555676 -3.136658 0.776628 2.322425 -3.521977 -1.192611 -2.034298 -0.100405 -3.323875 -6.979292 -9.579123 -94.916797 -3.842496 22.975167 -6.394095 -2.621361 0.975779 1.848993 -4.940805 -2.833022 -8.658212 0.999597 9.188880 0.398034 7.032196 0.776515 3.060407 -0.005291 -0.010733 -0.049911 6.752437 13.579464 3.542542 12.801666 13.528031 4.956968 11.344508 -9.460762 -8.703276 -0.031724 -1.138387 -1.437304
-12.165839 88.874949 39.070702 -30.940026 -9.990168 4.366382 -0.893216 5.773302 1.361757 -0.491839 3.318275 0.800493 -0.607792 4.148883 0.996573 -0.491839 3.318275 0.800493 12.357007 23.084325 -2.952306 14.725661 0.198012 -6.217937 1.205042 -0.045634 -3.891435 -1.061461 -7.746160 82.386536 4.641997 -3.258858 0.732821 2.344866 -3.556327 -1.230761 -2.048184 -0.144027 -3.336524 -7.062072 -9.581573 -94.968891 -3.922888 23.009838 -6.541439 -2.589880 0.993251 1.800017 -4.946083 -2.893747 -8.656801 1.033205 9.279844 0.377915 7.060635 0.758805 3.081298 -0.007507 -0.037501 -0.038706 6.378454 13.640581 3.520472 12.620149 13.830472 4.935425 11.159907 -9.333879 -8.664780 -0.008368 -1.345208 -1.253832
-12.150795 88.878933 39.115536 -30.982580 -9.971416 4.349836 -0.906896 5.776271 1.368932 -0.502474 3.316050 0.800476 -0.621095 4.146125 0.996458 -0.502474 3.316051 0.800476 12.320453 23.050440 -2.973662 14.686331 0.152665 -6.233414 1.200504 -0.079803 -3.919509 -1.155058 -7.815520 82.411386 4.743920 -3.391506 0.707106 2.370489 -3.593526 -1.267432 -2.060895 -0.186893 -3.347500 -7.133400 -9.579990 -95.019137 -4.004248 23.040991 -6.690172 -2.554959 1.008682 1.750991 -4.967465 -2.943929 -8.652453 1.074740 9.362457 0.365838 7.095112 0.734749 3.097325 -0.010015 -0.056847 -0.024728 6.000304 13.709904 3.508537 12.484656 14.116594 4.920176 10.918377 -9.177627 -8.688269 0.017582 -1.534786 -1.047923
-12.131460 88.879002 39.165576 -31.019372 -9.955774 4.323272 -0.920204 5.779283 1.380444 -0.513195 3.313718 0.801994 -0.634494 4.143234 0.998262 -0.513195 3.313718 0.801995 12.283840 23.012910 -2.996230 14.647236 0.102982 -6.250284 1.194034 -0.110561 -3.949252 -1.259221 -7.872215 82.438640 4.858535 -3.534089 0.695023 2.399098 -3.630032 -1.296464 -2.069456 -0.225174 -3.358819 -7.196932 -9.578808 -95.066410 -4.084568 23.068110 -6.838142 -2.516417 1.023146 1.702853 -4.999152 -2.985346 -8.648813 1.119917 9.437259 0.362477 7.134475 0.704402 3.108724 -0.012206 -0.069007 -0.009109 5.626187 13.785567 3.501093 12.369021 14.382149 4.901076 10.661697 -8.983600 -8.728888 0.035524 -1.711791 -0.855901
-12.107655 88.875505 39.220347 -31.050941 -9.944573 4.290672 -0.933450 5.781206 1.391350 -0.523554 3.311197 0.805291 -0.647422 4.140110 1.002293 -0.523554 3.311197 0.805291 12.246800 22.974104 -3.017973 14.607395 0.051637 -6.266096 1.183177 -0.135399 -3.976847 -1.366499 -7.917257 82.463446 4.983557 -3.680981 0.695065 2.429586 -3.663438 -1.318739 -2.075094 -0.252883 -3.371537 -7.256696 -9.581859 -95.109091 -4.162371 23.089072 -6.982963 -2.476575 1.037572 1.656510 -5.038498 -3.016906 -8.646985 1.164086 9.504243 0.364296 7.173374 0.668938 3.117922 -0.014140 -0.074532 0.005869 5.266158 13.871153 3.493498 12.247567 14.614105 4.869207 10.428455 -8.731630 -8.746123 0.045767 -1.881149 -0.704777
-12.079015 88.868884 39.279247 -31.081395 -9.939463 4.258147 -0.943913 5.782796 1.397005 -0.532528 3.308786 0.809658 -0.658610 4.137122 1.007675 -0.532528 3.308786 0.809658 12.209080 22.934793 -3.037363 14.566083 -0.000597 -6.279022 1.167617 -0.154249 -3.998902 -1.475456 -7.949558 82.482252 5.117982 -3.820760 0.708023 2.462708 -3.695486 -1.337338 -2.084107 -0.270625 -3.384261 -7.313297 -9.589682 -95.147256 -4.234938 23.101961 -7.120569 -2.440018 1.051248 1.611724 -5.078061 -3.037858 -8.649029 1.204789 9.564316 0.366499 7.204998 0.628878 3.126721 -0.015902 -0.073501 0.019844 4.938776 13.970370 3.484436 12.128452 14.799169 4.828161 10.203745 -8.404914 -8.716807 0.053413 -2.044576 -0.604724
-12.045383 88.859622 39.341676 -31.120709 -9.943489 4.232183 -0.945615 5.789464 1.392190 -0.538685 3.306739 0.815075 -0.666264 4.134584 1.014396 -0.538685 3.306739 0.815075 12.170425 22.894435 -3.054562 14.523027 -0.054405 -6.289185 1.148809 -0.166225 -4.013617 -1.584020 -7.972450 82.490405 5.256128 -3.947785 0.732969 2.501296 -3.725593 -1.352699 -2.097145 -0.282391 -3.396815 -7.367826 -9.600023 -95.181575 -4.301806 23.108115 -7.249427 -2.410000 1.062986 1.569441 -5.104182 -3.046780 -8.658160 1.240642 9.619959 0.366060 7.227295 0.583566 3.135701 -0.016840 -0.065801 0.033734 4.661861 14.087443 3.474612 12.035586 14.933435 4.784653 9.954905 -8.002077 -8.637909 0.060035 -2.196070 -0.549161
-12.006248 88.848283 39.407783 -31.176012 -9.962993 4.222772 -0.933994 5.809239 1.366245 -0.542019 3.305155 0.822594 -0.670369 4.132622 1.023771 -0.542019 3.305155 0.822594 12.130430 22.854020 -3.070321 14.477957 -0.108566 -6.297339 1.127674 -0.170363 -4.021985 -1.686718 -7.990486 82.483662 5.394203 -4.059074 0.770438 2.542201 -3.755077 -1.364473 -2.109516 -0.290520 -3.411255 -7.420631 -9.609956 -95.214464 -4.366052 23.113769 -7.368017 -2.387233 1.070525 1.533395 -5.106797 -3.040252 -8.684909 1.268989 9.675553 0.361574 7.248532 0.530608 3.146919 -0.015403 -0.051575 0.048121 4.443128 14.231198 3.459822 11.970601 15.012792 4.738740 9.667029 -7.519286 -8.514475 0.062661 -2.327694 -0.525222
